<svg width="150" height="52" viewBox="0 0 150 52" fill="none" xmlns="http://www.w3.org/2000/svg">
<rect width="150" height="52" rx="5" fill="#3A68B8"/>
<path d="M31.5078 32V20.5781H33.375V30.3984H38.2109V32H31.5078ZM43.7578 32.1562C42.4141 32.1562 41.362 31.7656 40.6016 30.9844C39.8464 30.1979 39.4688 29.1172 39.4688 27.7422C39.4688 26.3307 39.8203 25.2214 40.5234 24.4141C41.2266 23.6068 42.1927 23.2031 43.4219 23.2031C44.5625 23.2031 45.4635 23.5495 46.125 24.2422C46.7865 24.9349 47.1172 25.888 47.1172 27.1016V28.0938H41.3594C41.3854 28.9323 41.612 29.5781 42.0391 30.0312C42.4661 30.4792 43.0677 30.7031 43.8438 30.7031C44.3542 30.7031 44.8281 30.6562 45.2656 30.5625C45.7083 30.4635 46.1823 30.3021 46.6875 30.0781V31.5703C46.2396 31.7839 45.7865 31.9349 45.3281 32.0234C44.8698 32.112 44.3464 32.1562 43.7578 32.1562ZM43.4219 24.5938C42.8385 24.5938 42.3698 24.7786 42.0156 25.1484C41.6667 25.5182 41.4583 26.0573 41.3906 26.7656H45.3125C45.3021 26.0521 45.1302 25.513 44.7969 25.1484C44.4635 24.7786 44.0052 24.5938 43.4219 24.5938ZM54.6094 32L54.2422 30.7969H54.1797C53.763 31.3229 53.3438 31.6823 52.9219 31.875C52.5 32.0625 51.9583 32.1562 51.2969 32.1562C50.4479 32.1562 49.7839 31.9271 49.3047 31.4688C48.8307 31.0104 48.5938 30.362 48.5938 29.5234C48.5938 28.6328 48.9245 27.9609 49.5859 27.5078C50.2474 27.0547 51.2552 26.8073 52.6094 26.7656L54.1016 26.7188V26.2578C54.1016 25.7057 53.9714 25.2943 53.7109 25.0234C53.4557 24.7474 53.0573 24.6094 52.5156 24.6094C52.0729 24.6094 51.6484 24.6745 51.2422 24.8047C50.8359 24.9349 50.4453 25.0885 50.0703 25.2656L49.4766 23.9531C49.9453 23.7083 50.4583 23.5234 51.0156 23.3984C51.5729 23.2682 52.099 23.2031 52.5938 23.2031C53.6927 23.2031 54.5208 23.4427 55.0781 23.9219C55.6406 24.401 55.9219 25.1536 55.9219 26.1797V32H54.6094ZM51.875 30.75C52.5417 30.75 53.0755 30.5651 53.4766 30.1953C53.8828 29.8203 54.0859 29.2969 54.0859 28.625V27.875L52.9766 27.9219C52.112 27.9531 51.4818 28.099 51.0859 28.3594C50.6953 28.6146 50.5 29.0078 50.5 29.5391C50.5 29.9245 50.6146 30.224 50.8438 30.4375C51.0729 30.6458 51.4167 30.75 51.875 30.75ZM62.8672 23.2031C63.237 23.2031 63.5417 23.2292 63.7812 23.2812L63.6016 24.9922C63.3411 24.9297 63.0703 24.8984 62.7891 24.8984C62.0547 24.8984 61.4583 25.138 61 25.6172C60.5469 26.0964 60.3203 26.7188 60.3203 27.4844V32H58.4844V23.3594H59.9219L60.1641 24.8828H60.2578C60.5443 24.3672 60.9167 23.9583 61.375 23.6562C61.8385 23.3542 62.3359 23.2031 62.8672 23.2031ZM72.9922 32H71.1484V26.6875C71.1484 26.0208 71.013 25.5234 70.7422 25.1953C70.4766 24.8672 70.0521 24.7031 69.4688 24.7031C68.6927 24.7031 68.125 24.9323 67.7656 25.3906C67.4062 25.849 67.2266 26.6172 67.2266 27.6953V32H65.3906V23.3594H66.8281L67.0859 24.4922H67.1797C67.4401 24.0807 67.8099 23.763 68.2891 23.5391C68.7682 23.3151 69.2995 23.2031 69.8828 23.2031C71.9557 23.2031 72.9922 24.2578 72.9922 26.3672V32ZM84.8359 32L81.5234 22.4609H81.4609C81.5495 23.8776 81.5938 25.2057 81.5938 26.4453V32H79.8984V20.5781H82.5312L85.7031 29.6641H85.75L89.0156 20.5781H91.6562V32H89.8594V26.3516C89.8594 25.7839 89.8724 25.0443 89.8984 24.1328C89.9297 23.2214 89.9557 22.6693 89.9766 22.4766H89.9141L86.4844 32H84.8359ZM102.133 27.6641C102.133 29.0755 101.771 30.1771 101.047 30.9688C100.323 31.7604 99.3151 32.1562 98.0234 32.1562C97.2161 32.1562 96.5026 31.974 95.8828 31.6094C95.263 31.2448 94.7865 30.7214 94.4531 30.0391C94.1198 29.3568 93.9531 28.5651 93.9531 27.6641C93.9531 26.263 94.3125 25.1693 95.0312 24.3828C95.75 23.5964 96.763 23.2031 98.0703 23.2031C99.3203 23.2031 100.31 23.6068 101.039 24.4141C101.768 25.2161 102.133 26.2995 102.133 27.6641ZM95.8438 27.6641C95.8438 29.6589 96.5807 30.6562 98.0547 30.6562C99.513 30.6562 100.242 29.6589 100.242 27.6641C100.242 25.6901 99.5078 24.7031 98.0391 24.7031C97.2682 24.7031 96.7083 24.9583 96.3594 25.4688C96.0156 25.9792 95.8438 26.7109 95.8438 27.6641ZM108.633 23.2031C109.003 23.2031 109.307 23.2292 109.547 23.2812L109.367 24.9922C109.107 24.9297 108.836 24.8984 108.555 24.8984C107.82 24.8984 107.224 25.138 106.766 25.6172C106.312 26.0964 106.086 26.7188 106.086 27.4844V32H104.25V23.3594H105.688L105.93 24.8828H106.023C106.31 24.3672 106.682 23.9583 107.141 23.6562C107.604 23.3542 108.102 23.2031 108.633 23.2031ZM114.93 32.1562C113.586 32.1562 112.534 31.7656 111.773 30.9844C111.018 30.1979 110.641 29.1172 110.641 27.7422C110.641 26.3307 110.992 25.2214 111.695 24.4141C112.398 23.6068 113.365 23.2031 114.594 23.2031C115.734 23.2031 116.635 23.5495 117.297 24.2422C117.958 24.9349 118.289 25.888 118.289 27.1016V28.0938H112.531C112.557 28.9323 112.784 29.5781 113.211 30.0312C113.638 30.4792 114.24 30.7031 115.016 30.7031C115.526 30.7031 116 30.6562 116.438 30.5625C116.88 30.4635 117.354 30.3021 117.859 30.0781V31.5703C117.411 31.7839 116.958 31.9349 116.5 32.0234C116.042 32.112 115.518 32.1562 114.93 32.1562ZM114.594 24.5938C114.01 24.5938 113.542 24.7786 113.188 25.1484C112.839 25.5182 112.63 26.0573 112.562 26.7656H116.484C116.474 26.0521 116.302 25.513 115.969 25.1484C115.635 24.7786 115.177 24.5938 114.594 24.5938Z" fill="white"/>
</svg>
