<svg width="47" height="14" viewBox="0 0 47 14" fill="none" xmlns="http://www.w3.org/2000/svg">
<path d="M8.59375 13L7.45312 9.82812H3.08594L1.96875 13H0L4.27344 1.53125H6.30469L10.5781 13H8.59375ZM6.96094 8.21875L5.89062 5.10938C5.8125 4.90104 5.70312 4.57292 5.5625 4.125C5.42708 3.67708 5.33333 3.34896 5.28125 3.14062C5.14062 3.78125 4.9349 4.48177 4.66406 5.24219L3.63281 8.21875H6.96094ZM16.3047 4.20312C17.3828 4.20312 18.2214 4.59375 18.8203 5.375C19.4245 6.15625 19.7266 7.2526 19.7266 8.66406C19.7266 10.0807 19.4219 11.1849 18.8125 11.9766C18.2031 12.763 17.3568 13.1562 16.2734 13.1562C15.1797 13.1562 14.3307 12.763 13.7266 11.9766H13.6016L13.2656 13H11.8906V0.84375H13.7266V3.73438C13.7266 3.94792 13.7161 4.26562 13.6953 4.6875C13.6745 5.10938 13.6589 5.3776 13.6484 5.49219H13.7266C14.3099 4.63281 15.1693 4.20312 16.3047 4.20312ZM15.8281 5.70312C15.0885 5.70312 14.5547 5.92188 14.2266 6.35938C13.9036 6.79167 13.737 7.51823 13.7266 8.53906V8.66406C13.7266 9.71615 13.8932 10.4792 14.2266 10.9531C14.5599 11.4219 15.1042 11.6562 15.8594 11.6562C16.5104 11.6562 17.0026 11.3984 17.3359 10.8828C17.6745 10.3672 17.8438 9.6224 17.8438 8.64844C17.8438 6.6849 17.1719 5.70312 15.8281 5.70312ZM29.5234 8.66406C29.5234 10.0755 29.1615 11.1771 28.4375 11.9688C27.7135 12.7604 26.7057 13.1562 25.4141 13.1562C24.6068 13.1562 23.8932 12.974 23.2734 12.6094C22.6536 12.2448 22.1771 11.7214 21.8438 11.0391C21.5104 10.3568 21.3438 9.5651 21.3438 8.66406C21.3438 7.26302 21.7031 6.16927 22.4219 5.38281C23.1406 4.59635 24.1536 4.20312 25.4609 4.20312C26.7109 4.20312 27.7005 4.60677 28.4297 5.41406C29.1589 6.21615 29.5234 7.29948 29.5234 8.66406ZM23.2344 8.66406C23.2344 10.6589 23.9714 11.6562 25.4453 11.6562C26.9036 11.6562 27.6328 10.6589 27.6328 8.66406C27.6328 6.6901 26.8984 5.70312 25.4297 5.70312C24.6589 5.70312 24.099 5.95833 23.75 6.46875C23.4062 6.97917 23.2344 7.71094 23.2344 8.66406ZM37.7344 13L37.4766 11.8672H37.3828C37.1276 12.2682 36.763 12.5833 36.2891 12.8125C35.8203 13.0417 35.2839 13.1562 34.6797 13.1562C33.6328 13.1562 32.8516 12.8958 32.3359 12.375C31.8203 11.8542 31.5625 11.0651 31.5625 10.0078V4.35938H33.4141V9.6875C33.4141 10.349 33.5495 10.8464 33.8203 11.1797C34.0911 11.5078 34.5156 11.6719 35.0938 11.6719C35.8646 11.6719 36.4297 11.4427 36.7891 10.9844C37.1536 10.5208 37.3359 9.7474 37.3359 8.66406V4.35938H39.1797V13H37.7344ZM45.0156 11.6719C45.4635 11.6719 45.9115 11.6016 46.3594 11.4609V12.8438C46.1562 12.9323 45.8932 13.0052 45.5703 13.0625C45.2526 13.125 44.9219 13.1562 44.5781 13.1562C42.8385 13.1562 41.9688 12.2396 41.9688 10.4062V5.75H40.7891V4.9375L42.0547 4.26562L42.6797 2.4375H43.8125V4.35938H46.2734V5.75H43.8125V10.375C43.8125 10.8177 43.9219 11.1458 44.1406 11.3594C44.3646 11.5677 44.6562 11.6719 45.0156 11.6719Z" fill="white"/>
</svg>
