<svg width="33" height="17" viewBox="0 0 33 17" fill="none" xmlns="http://www.w3.org/2000/svg">
<path d="M0.507812 1.57812H3.89844C5.47135 1.57812 6.60677 1.80729 7.30469 2.26562C8.00781 2.72396 8.35938 3.44792 8.35938 4.4375C8.35938 5.10417 8.1875 5.65885 7.84375 6.10156C7.5 6.54427 7.00521 6.82292 6.35938 6.9375V7.01562C7.16146 7.16667 7.75 7.46615 8.125 7.91406C8.50521 8.35677 8.69531 8.95833 8.69531 9.71875C8.69531 10.7448 8.33594 11.5495 7.61719 12.1328C6.90365 12.7109 5.90885 13 4.63281 13H0.507812V1.57812ZM2.375 6.29688H4.17188C4.95312 6.29688 5.52344 6.17448 5.88281 5.92969C6.24219 5.67969 6.42188 5.25781 6.42188 4.66406C6.42188 4.1276 6.22656 3.73958 5.83594 3.5C5.45052 3.26042 4.83594 3.14062 3.99219 3.14062H2.375V6.29688ZM2.375 7.8125V11.4297H4.35938C5.14062 11.4297 5.72917 11.2812 6.125 10.9844C6.52604 10.6823 6.72656 10.2083 6.72656 9.5625C6.72656 8.96875 6.52344 8.52865 6.11719 8.24219C5.71094 7.95573 5.09375 7.8125 4.26562 7.8125H2.375ZM12.7109 13H10.875V0.84375H12.7109V13ZM23.0078 8.66406C23.0078 10.0755 22.6458 11.1771 21.9219 11.9688C21.1979 12.7604 20.1901 13.1562 18.8984 13.1562C18.0911 13.1562 17.3776 12.974 16.7578 12.6094C16.138 12.2448 15.6615 11.7214 15.3281 11.0391C14.9948 10.3568 14.8281 9.5651 14.8281 8.66406C14.8281 7.26302 15.1875 6.16927 15.9062 5.38281C16.625 4.59635 17.638 4.20312 18.9453 4.20312C20.1953 4.20312 21.1849 4.60677 21.9141 5.41406C22.6432 6.21615 23.0078 7.29948 23.0078 8.66406ZM16.7188 8.66406C16.7188 10.6589 17.4557 11.6562 18.9297 11.6562C20.388 11.6562 21.1172 10.6589 21.1172 8.66406C21.1172 6.6901 20.3828 5.70312 18.9141 5.70312C18.1432 5.70312 17.5833 5.95833 17.2344 6.46875C16.8906 6.97917 16.7188 7.71094 16.7188 8.66406ZM32.4219 4.35938V5.36719L30.9453 5.64062C31.0807 5.82292 31.1927 6.04688 31.2812 6.3125C31.3698 6.57812 31.4141 6.85938 31.4141 7.15625C31.4141 8.04688 31.1068 8.7474 30.4922 9.25781C29.8776 9.76823 29.0312 10.0234 27.9531 10.0234C27.6771 10.0234 27.4271 10.0026 27.2031 9.96094C26.8073 10.2057 26.6094 10.4922 26.6094 10.8203C26.6094 11.0182 26.7005 11.1667 26.8828 11.2656C27.0703 11.3646 27.4115 11.4141 27.9062 11.4141H29.4141C30.3672 11.4141 31.0911 11.6172 31.5859 12.0234C32.0807 12.4297 32.3281 13.0156 32.3281 13.7812C32.3281 14.7604 31.9245 15.5156 31.1172 16.0469C30.3099 16.5781 29.1432 16.8438 27.6172 16.8438C26.4401 16.8438 25.5417 16.6354 24.9219 16.2188C24.3021 15.8021 23.9922 15.2083 23.9922 14.4375C23.9922 13.9062 24.1589 13.4583 24.4922 13.0938C24.8307 12.7344 25.3021 12.4844 25.9062 12.3438C25.6615 12.2396 25.4583 12.0729 25.2969 11.8438C25.1406 11.6094 25.0625 11.3646 25.0625 11.1094C25.0625 10.7865 25.1536 10.513 25.3359 10.2891C25.5182 10.0651 25.7891 9.84375 26.1484 9.625C25.7005 9.43229 25.3359 9.11979 25.0547 8.6875C24.7786 8.25 24.6406 7.73958 24.6406 7.15625C24.6406 6.21875 24.9349 5.49219 25.5234 4.97656C26.1172 4.46094 26.9609 4.20312 28.0547 4.20312C28.2995 4.20312 28.5547 4.22135 28.8203 4.25781C29.0911 4.28906 29.2943 4.32292 29.4297 4.35938H32.4219ZM25.6328 14.3438C25.6328 14.7396 25.8099 15.0443 26.1641 15.2578C26.5234 15.4714 27.026 15.5781 27.6719 15.5781C28.6719 15.5781 29.4167 15.4349 29.9062 15.1484C30.3958 14.862 30.6406 14.4818 30.6406 14.0078C30.6406 13.6328 30.5052 13.3646 30.2344 13.2031C29.9688 13.0469 29.4714 12.9688 28.7422 12.9688H27.3516C26.8255 12.9688 26.4062 13.0911 26.0938 13.3359C25.7865 13.5859 25.6328 13.9219 25.6328 14.3438ZM26.4219 7.15625C26.4219 7.69792 26.5599 8.11458 26.8359 8.40625C27.1172 8.69792 27.5182 8.84375 28.0391 8.84375C29.1016 8.84375 29.6328 8.27604 29.6328 7.14062C29.6328 6.57812 29.5 6.14583 29.2344 5.84375C28.974 5.53646 28.5755 5.38281 28.0391 5.38281C27.5078 5.38281 27.1042 5.53385 26.8281 5.83594C26.5573 6.13802 26.4219 6.57812 26.4219 7.15625Z" fill="white"/>
</svg>
