<svg width="60" height="13" viewBox="0 0 60 13" fill="none" xmlns="http://www.w3.org/2000/svg">
<path d="M6.36719 2.01562C5.29427 2.01562 4.45052 2.39583 3.83594 3.15625C3.22135 3.91667 2.91406 4.96615 2.91406 6.30469C2.91406 7.70573 3.20833 8.76562 3.79688 9.48438C4.39062 10.2031 5.2474 10.5625 6.36719 10.5625C6.85156 10.5625 7.32031 10.5156 7.77344 10.4219C8.22656 10.3229 8.69792 10.1979 9.1875 10.0469V11.6484C8.29167 11.987 7.27604 12.1562 6.14062 12.1562C4.46875 12.1562 3.1849 11.651 2.28906 10.6406C1.39323 9.625 0.945312 8.17448 0.945312 6.28906C0.945312 5.10156 1.16146 4.0625 1.59375 3.17188C2.03125 2.28125 2.66146 1.59896 3.48438 1.125C4.30729 0.651042 5.27344 0.414062 6.38281 0.414062C7.54948 0.414062 8.6276 0.658854 9.61719 1.14844L8.94531 2.70312C8.5599 2.52083 8.15104 2.36198 7.71875 2.22656C7.29167 2.08594 6.84115 2.01562 6.36719 2.01562ZM19.1172 7.66406C19.1172 9.07552 18.7552 10.1771 18.0312 10.9688C17.3073 11.7604 16.2995 12.1562 15.0078 12.1562C14.2005 12.1562 13.487 11.974 12.8672 11.6094C12.2474 11.2448 11.7708 10.7214 11.4375 10.0391C11.1042 9.35677 10.9375 8.5651 10.9375 7.66406C10.9375 6.26302 11.2969 5.16927 12.0156 4.38281C12.7344 3.59635 13.7474 3.20312 15.0547 3.20312C16.3047 3.20312 17.2943 3.60677 18.0234 4.41406C18.7526 5.21615 19.1172 6.29948 19.1172 7.66406ZM12.8281 7.66406C12.8281 9.65885 13.5651 10.6562 15.0391 10.6562C16.4974 10.6562 17.2266 9.65885 17.2266 7.66406C17.2266 5.6901 16.4922 4.70312 15.0234 4.70312C14.2526 4.70312 13.6927 4.95833 13.3438 5.46875C13 5.97917 12.8281 6.71094 12.8281 7.66406ZM28.8359 12H26.9922V6.6875C26.9922 6.02083 26.8568 5.52344 26.5859 5.19531C26.3203 4.86719 25.8958 4.70312 25.3125 4.70312C24.5365 4.70312 23.9688 4.93229 23.6094 5.39062C23.25 5.84896 23.0703 6.61719 23.0703 7.69531V12H21.2344V3.35938H22.6719L22.9297 4.49219H23.0234C23.2839 4.08073 23.6536 3.76302 24.1328 3.53906C24.612 3.3151 25.1432 3.20312 25.7266 3.20312C27.7995 3.20312 28.8359 4.25781 28.8359 6.36719V12ZM34.6094 10.6719C35.0573 10.6719 35.5052 10.6016 35.9531 10.4609V11.8438C35.75 11.9323 35.487 12.0052 35.1641 12.0625C34.8464 12.125 34.5156 12.1562 34.1719 12.1562C32.4323 12.1562 31.5625 11.2396 31.5625 9.40625V4.75H30.3828V3.9375L31.6484 3.26562L32.2734 1.4375H33.4062V3.35938H35.8672V4.75H33.4062V9.375C33.4062 9.81771 33.5156 10.1458 33.7344 10.3594C33.9583 10.5677 34.25 10.6719 34.6094 10.6719ZM43.0938 12L42.7266 10.7969H42.6641C42.2474 11.3229 41.8281 11.6823 41.4062 11.875C40.9844 12.0625 40.4427 12.1562 39.7812 12.1562C38.9323 12.1562 38.2682 11.9271 37.7891 11.4688C37.3151 11.0104 37.0781 10.362 37.0781 9.52344C37.0781 8.63281 37.4089 7.96094 38.0703 7.50781C38.7318 7.05469 39.7396 6.80729 41.0938 6.76562L42.5859 6.71875V6.25781C42.5859 5.70573 42.4557 5.29427 42.1953 5.02344C41.9401 4.7474 41.5417 4.60938 41 4.60938C40.5573 4.60938 40.1328 4.67448 39.7266 4.80469C39.3203 4.9349 38.9297 5.08854 38.5547 5.26562L37.9609 3.95312C38.4297 3.70833 38.9427 3.52344 39.5 3.39844C40.0573 3.26823 40.5833 3.20312 41.0781 3.20312C42.1771 3.20312 43.0052 3.44271 43.5625 3.92188C44.125 4.40104 44.4062 5.15365 44.4062 6.17969V12H43.0938ZM40.3594 10.75C41.026 10.75 41.5599 10.5651 41.9609 10.1953C42.3672 9.82031 42.5703 9.29688 42.5703 8.625V7.875L41.4609 7.92188C40.5964 7.95312 39.9661 8.09896 39.5703 8.35938C39.1797 8.61458 38.9844 9.00781 38.9844 9.53906C38.9844 9.92448 39.099 10.224 39.3281 10.4375C39.5573 10.6458 39.901 10.75 40.3594 10.75ZM50.4531 12.1562C49.1458 12.1562 48.151 11.776 47.4688 11.0156C46.7917 10.25 46.4531 9.15365 46.4531 7.72656C46.4531 6.27344 46.8073 5.15625 47.5156 4.375C48.2292 3.59375 49.2578 3.20312 50.6016 3.20312C51.513 3.20312 52.3333 3.3724 53.0625 3.71094L52.5078 5.1875C51.7318 4.88542 51.0911 4.73438 50.5859 4.73438C49.0911 4.73438 48.3438 5.72656 48.3438 7.71094C48.3438 8.67969 48.5286 9.40885 48.8984 9.89844C49.2734 10.3828 49.8203 10.625 50.5391 10.625C51.3568 10.625 52.1302 10.4219 52.8594 10.0156V11.6172C52.5312 11.8099 52.1797 11.9479 51.8047 12.0312C51.4349 12.1146 50.9844 12.1562 50.4531 12.1562ZM58.1094 10.6719C58.5573 10.6719 59.0052 10.6016 59.4531 10.4609V11.8438C59.25 11.9323 58.987 12.0052 58.6641 12.0625C58.3464 12.125 58.0156 12.1562 57.6719 12.1562C55.9323 12.1562 55.0625 11.2396 55.0625 9.40625V4.75H53.8828V3.9375L55.1484 3.26562L55.7734 1.4375H56.9062V3.35938H59.3672V4.75H56.9062V9.375C56.9062 9.81771 57.0156 10.1458 57.2344 10.3594C57.4583 10.5677 57.75 10.6719 58.1094 10.6719Z" fill="white"/>
</svg>
