<svg width="217" height="57" viewBox="0 0 217 57" fill="none" xmlns="http://www.w3.org/2000/svg">
<rect width="217" height="57" rx="5" fill="#3A68B8"/>
<path d="M56 28.5L36.5 40.1913L36.5 16.8087L56 28.5Z" fill="white"/>
<path d="M81.0586 36H78.5195L76.0977 27.4844C75.9935 27.1133 75.8633 26.5794 75.707 25.8828C75.5508 25.1797 75.4564 24.6914 75.4238 24.418C75.3587 24.8346 75.2513 25.375 75.1016 26.0391C74.9583 26.7031 74.8379 27.1979 74.7402 27.5234L72.377 36H69.8379L67.9922 28.8516L66.1172 21.7227H68.5L70.541 30.043C70.86 31.3776 71.0879 32.556 71.2246 33.5781C71.2962 33.0247 71.4036 32.4062 71.5469 31.7227C71.6901 31.0391 71.8203 30.4857 71.9375 30.0625L74.2617 21.7227H76.5762L78.959 30.1016C79.1868 30.8763 79.4277 32.0352 79.6816 33.5781C79.7793 32.6471 80.0137 31.4622 80.3848 30.0234L82.416 21.7227H84.7793L81.0586 36ZM93.3242 36L92.8652 34.4961H92.7871C92.2663 35.1536 91.7422 35.6029 91.2148 35.8438C90.6875 36.0781 90.0104 36.1953 89.1836 36.1953C88.1224 36.1953 87.2923 35.9089 86.6934 35.3359C86.1009 34.763 85.8047 33.9525 85.8047 32.9043C85.8047 31.791 86.2181 30.9512 87.0449 30.3848C87.8717 29.8184 89.1315 29.5091 90.8242 29.457L92.6895 29.3984V28.8223C92.6895 28.1322 92.5267 27.6178 92.2012 27.2793C91.8822 26.9342 91.3841 26.7617 90.707 26.7617C90.1536 26.7617 89.623 26.8431 89.1152 27.0059C88.6074 27.1686 88.1191 27.3607 87.6504 27.582L86.9082 25.9414C87.4941 25.6354 88.1354 25.4043 88.832 25.248C89.5286 25.0853 90.1862 25.0039 90.8047 25.0039C92.1784 25.0039 93.2135 25.3034 93.9102 25.9023C94.6133 26.5013 94.9648 27.4421 94.9648 28.7246V36H93.3242ZM89.9062 34.4375C90.7396 34.4375 91.4069 34.2064 91.9082 33.7441C92.416 33.2754 92.6699 32.6211 92.6699 31.7812V30.8438L91.2832 30.9023C90.2025 30.9414 89.4147 31.1237 88.9199 31.4492C88.4316 31.7682 88.1875 32.2598 88.1875 32.9238C88.1875 33.4056 88.3307 33.7799 88.6172 34.0469C88.9036 34.3073 89.3333 34.4375 89.9062 34.4375ZM102.191 34.3398C102.751 34.3398 103.311 34.252 103.871 34.0762V35.8047C103.617 35.9154 103.288 36.0065 102.885 36.0781C102.488 36.1562 102.074 36.1953 101.645 36.1953C99.4701 36.1953 98.3828 35.0495 98.3828 32.7578V26.9375H96.9082V25.9219L98.4902 25.082L99.2715 22.7969H100.688V25.1992H103.764V26.9375H100.688V32.7188C100.688 33.2721 100.824 33.6823 101.098 33.9492C101.378 34.2096 101.742 34.3398 102.191 34.3398ZM110.395 36.1953C108.76 36.1953 107.517 35.7201 106.664 34.7695C105.818 33.8125 105.395 32.4421 105.395 30.6582C105.395 28.8418 105.837 27.4453 106.723 26.4688C107.615 25.4922 108.9 25.0039 110.58 25.0039C111.719 25.0039 112.745 25.2155 113.656 25.6387L112.963 27.4844C111.993 27.1068 111.192 26.918 110.561 26.918C108.692 26.918 107.758 28.1582 107.758 30.6387C107.758 31.8496 107.989 32.7611 108.451 33.373C108.92 33.9785 109.604 34.2812 110.502 34.2812C111.524 34.2812 112.491 34.0273 113.402 33.5195V35.5215C112.992 35.7624 112.553 35.9349 112.084 36.0391C111.622 36.1432 111.059 36.1953 110.395 36.1953ZM125.443 36H123.139V29.3594C123.139 28.526 122.969 27.9043 122.631 27.4941C122.299 27.084 121.768 26.8789 121.039 26.8789C120.076 26.8789 119.366 27.1686 118.91 27.748C118.461 28.321 118.236 29.2845 118.236 30.6387V36H115.941V20.8047H118.236V24.6621C118.236 25.2806 118.197 25.9414 118.119 26.6445H118.266C118.578 26.1237 119.011 25.7201 119.564 25.4336C120.124 25.1471 120.775 25.0039 121.518 25.0039C124.135 25.0039 125.443 26.3223 125.443 28.959V36ZM142.211 21.7227H144.633L139.633 36H137.172L132.191 21.7227H134.594L137.572 30.5996C137.729 31.0228 137.895 31.5697 138.07 32.2402C138.246 32.9043 138.36 33.3991 138.412 33.7246C138.497 33.2298 138.627 32.6569 138.803 32.0059C138.979 31.3548 139.122 30.873 139.232 30.5605L142.211 21.7227ZM148.568 36H146.273V25.1992H148.568V36ZM146.137 22.3379C146.137 21.9277 146.247 21.612 146.469 21.3906C146.697 21.1693 147.019 21.0586 147.436 21.0586C147.839 21.0586 148.152 21.1693 148.373 21.3906C148.601 21.612 148.715 21.9277 148.715 22.3379C148.715 22.7285 148.601 23.0378 148.373 23.2656C148.152 23.487 147.839 23.5977 147.436 23.5977C147.019 23.5977 146.697 23.487 146.469 23.2656C146.247 23.0378 146.137 22.7285 146.137 22.3379ZM155.502 36.1953C154.154 36.1953 153.103 35.707 152.348 34.7305C151.592 33.7539 151.215 32.3835 151.215 30.6191C151.215 28.8483 151.596 27.4714 152.357 26.4883C153.126 25.4987 154.187 25.0039 155.541 25.0039C156.96 25.0039 158.041 25.528 158.783 26.5762H158.9C158.79 25.8014 158.734 25.1895 158.734 24.7402V20.8047H161.039V36H159.242L158.842 34.584H158.734C157.999 35.6582 156.921 36.1953 155.502 36.1953ZM156.117 34.3398C157.061 34.3398 157.748 34.0762 158.178 33.5488C158.607 33.015 158.829 32.1523 158.842 30.9609V30.6387C158.842 29.278 158.62 28.3112 158.178 27.7383C157.735 27.1654 157.042 26.8789 156.098 26.8789C155.29 26.8789 154.669 27.2077 154.232 27.8652C153.796 28.5163 153.578 29.4473 153.578 30.6582C153.578 31.8561 153.79 32.7708 154.213 33.4023C154.636 34.0273 155.271 34.3398 156.117 34.3398ZM169.037 36.1953C167.357 36.1953 166.042 35.707 165.092 34.7305C164.148 33.7474 163.676 32.3965 163.676 30.6777C163.676 28.9134 164.115 27.5267 164.994 26.5176C165.873 25.5085 167.081 25.0039 168.617 25.0039C170.043 25.0039 171.169 25.4368 171.996 26.3027C172.823 27.1686 173.236 28.36 173.236 29.877V31.1172H166.039C166.072 32.1654 166.355 32.9727 166.889 33.5391C167.423 34.099 168.174 34.3789 169.145 34.3789C169.783 34.3789 170.375 34.3203 170.922 34.2031C171.475 34.0794 172.068 33.8776 172.699 33.5977V35.4629C172.139 35.7298 171.573 35.9186 171 36.0293C170.427 36.14 169.773 36.1953 169.037 36.1953ZM168.617 26.7422C167.888 26.7422 167.302 26.9733 166.859 27.4355C166.423 27.8978 166.163 28.5716 166.078 29.457H170.98C170.967 28.5651 170.753 27.8913 170.336 27.4355C169.919 26.9733 169.346 26.7422 168.617 26.7422ZM185.424 30.5801C185.424 32.3444 184.971 33.7214 184.066 34.7109C183.161 35.7005 181.902 36.1953 180.287 36.1953C179.278 36.1953 178.386 35.9674 177.611 35.5117C176.837 35.056 176.241 34.4017 175.824 33.5488C175.408 32.696 175.199 31.7064 175.199 30.5801C175.199 28.8288 175.648 27.4616 176.547 26.4785C177.445 25.4954 178.712 25.0039 180.346 25.0039C181.908 25.0039 183.145 25.5085 184.057 26.5176C184.968 27.5202 185.424 28.8743 185.424 30.5801ZM177.562 30.5801C177.562 33.0736 178.484 34.3203 180.326 34.3203C182.149 34.3203 183.061 33.0736 183.061 30.5801C183.061 28.1126 182.143 26.8789 180.307 26.8789C179.343 26.8789 178.643 27.1979 178.207 27.8359C177.777 28.474 177.562 29.3887 177.562 30.5801Z" fill="white"/>
</svg>
