<svg width="171" height="57" viewBox="0 0 171 57" fill="none" xmlns="http://www.w3.org/2000/svg">
<rect width="171" height="57" rx="5" fill="#3A68B8"/>
<path d="M37.7246 28.2559H42.9785V35.4238C42.1191 35.7038 41.2923 35.9023 40.498 36.0195C39.7103 36.1367 38.8574 36.1953 37.9395 36.1953C35.778 36.1953 34.1113 35.5573 32.9395 34.2812C31.7676 32.9987 31.1816 31.1921 31.1816 28.8613C31.1816 26.5632 31.8424 24.7663 33.1641 23.4707C34.4857 22.1686 36.3053 21.5176 38.623 21.5176C40.1139 21.5176 41.5267 21.804 42.8613 22.377L42.041 24.3203C40.8822 23.7865 39.7233 23.5195 38.5645 23.5195C37.041 23.5195 35.8366 23.998 34.9512 24.9551C34.0658 25.9121 33.623 27.2207 33.623 28.8809C33.623 30.6257 34.0202 31.9538 34.8145 32.8652C35.6152 33.7702 36.7643 34.2227 38.2617 34.2227C39.0169 34.2227 39.8242 34.1283 40.6836 33.9395V30.2578H37.7246V28.2559ZM50.8887 36.1953C49.209 36.1953 47.8939 35.707 46.9434 34.7305C45.9993 33.7474 45.5273 32.3965 45.5273 30.6777C45.5273 28.9134 45.9668 27.5267 46.8457 26.5176C47.7246 25.5085 48.9323 25.0039 50.4688 25.0039C51.8945 25.0039 53.0208 25.4368 53.8477 26.3027C54.6745 27.1686 55.0879 28.36 55.0879 29.877V31.1172H47.8906C47.9232 32.1654 48.2064 32.9727 48.7402 33.5391C49.2741 34.099 50.026 34.3789 50.9961 34.3789C51.6341 34.3789 52.2266 34.3203 52.7734 34.2031C53.3268 34.0794 53.9193 33.8776 54.5508 33.5977V35.4629C53.9909 35.7298 53.4245 35.9186 52.8516 36.0293C52.2786 36.14 51.6243 36.1953 50.8887 36.1953ZM50.4688 26.7422C49.7396 26.7422 49.1536 26.9733 48.7109 27.4355C48.2747 27.8978 48.0143 28.5716 47.9297 29.457H52.832C52.819 28.5651 52.6042 27.8913 52.1875 27.4355C51.7708 26.9733 51.1979 26.7422 50.4688 26.7422ZM61.7188 34.3398C62.2786 34.3398 62.8385 34.252 63.3984 34.0762V35.8047C63.1445 35.9154 62.8158 36.0065 62.4121 36.0781C62.015 36.1562 61.6016 36.1953 61.1719 36.1953C58.9974 36.1953 57.9102 35.0495 57.9102 32.7578V26.9375H56.4355V25.9219L58.0176 25.082L58.7988 22.7969H60.2148V25.1992H63.291V26.9375H60.2148V32.7188C60.2148 33.2721 60.3516 33.6823 60.625 33.9492C60.9049 34.2096 61.2695 34.3398 61.7188 34.3398ZM79.2383 32.123C79.2383 33.3926 78.7793 34.3887 77.8613 35.1113C76.9434 35.834 75.6771 36.1953 74.0625 36.1953C72.4479 36.1953 71.1263 35.9447 70.0977 35.4434V33.2363C70.7487 33.5423 71.4388 33.7832 72.168 33.959C72.9036 34.1348 73.5872 34.2227 74.2188 34.2227C75.1432 34.2227 75.8236 34.0469 76.2598 33.6953C76.7025 33.3438 76.9238 32.8717 76.9238 32.2793C76.9238 31.7454 76.722 31.293 76.3184 30.9219C75.9147 30.5508 75.0814 30.1113 73.8184 29.6035C72.5163 29.0762 71.5983 28.474 71.0645 27.7969C70.5306 27.1198 70.2637 26.306 70.2637 25.3555C70.2637 24.1641 70.6868 23.2266 71.5332 22.543C72.3796 21.8594 73.5156 21.5176 74.9414 21.5176C76.3086 21.5176 77.6693 21.8171 79.0234 22.416L78.2812 24.3203C77.0117 23.7865 75.8789 23.5195 74.8828 23.5195C74.1276 23.5195 73.5547 23.6855 73.1641 24.0176C72.7734 24.3431 72.5781 24.776 72.5781 25.3164C72.5781 25.6875 72.6562 26.0065 72.8125 26.2734C72.9688 26.5339 73.2259 26.7812 73.584 27.0156C73.9421 27.25 74.5866 27.5592 75.5176 27.9434C76.5658 28.3796 77.334 28.7865 77.8223 29.1641C78.3105 29.5417 78.6686 29.9681 78.8965 30.4434C79.1243 30.9186 79.2383 31.4785 79.2383 32.123ZM85.7812 34.3398C86.3411 34.3398 86.901 34.252 87.4609 34.0762V35.8047C87.207 35.9154 86.8783 36.0065 86.4746 36.0781C86.0775 36.1562 85.6641 36.1953 85.2344 36.1953C83.0599 36.1953 81.9727 35.0495 81.9727 32.7578V26.9375H80.498V25.9219L82.0801 25.082L82.8613 22.7969H84.2773V25.1992H87.3535V26.9375H84.2773V32.7188C84.2773 33.2721 84.4141 33.6823 84.6875 33.9492C84.9674 34.2096 85.332 34.3398 85.7812 34.3398ZM96.3867 36L95.9277 34.4961H95.8496C95.3288 35.1536 94.8047 35.6029 94.2773 35.8438C93.75 36.0781 93.0729 36.1953 92.2461 36.1953C91.1849 36.1953 90.3548 35.9089 89.7559 35.3359C89.1634 34.763 88.8672 33.9525 88.8672 32.9043C88.8672 31.791 89.2806 30.9512 90.1074 30.3848C90.9342 29.8184 92.194 29.5091 93.8867 29.457L95.752 29.3984V28.8223C95.752 28.1322 95.5892 27.6178 95.2637 27.2793C94.9447 26.9342 94.4466 26.7617 93.7695 26.7617C93.2161 26.7617 92.6855 26.8431 92.1777 27.0059C91.6699 27.1686 91.1816 27.3607 90.7129 27.582L89.9707 25.9414C90.5566 25.6354 91.1979 25.4043 91.8945 25.248C92.5911 25.0853 93.2487 25.0039 93.8672 25.0039C95.2409 25.0039 96.276 25.3034 96.9727 25.9023C97.6758 26.5013 98.0273 27.4421 98.0273 28.7246V36H96.3867ZM92.9688 34.4375C93.8021 34.4375 94.4694 34.2064 94.9707 33.7441C95.4785 33.2754 95.7324 32.6211 95.7324 31.7812V30.8438L94.3457 30.9023C93.265 30.9414 92.4772 31.1237 91.9824 31.4492C91.4941 31.7682 91.25 32.2598 91.25 32.9238C91.25 33.4056 91.3932 33.7799 91.6797 34.0469C91.9661 34.3073 92.3958 34.4375 92.9688 34.4375ZM106.709 25.0039C107.171 25.0039 107.552 25.0365 107.852 25.1016L107.627 27.2402C107.301 27.1621 106.963 27.123 106.611 27.123C105.693 27.123 104.948 27.4225 104.375 28.0215C103.809 28.6204 103.525 29.3984 103.525 30.3555V36H101.23V25.1992H103.027L103.33 27.1035H103.447C103.805 26.459 104.271 25.9479 104.844 25.5703C105.423 25.1927 106.045 25.0039 106.709 25.0039ZM113.887 34.3398C114.447 34.3398 115.007 34.252 115.566 34.0762V35.8047C115.312 35.9154 114.984 36.0065 114.58 36.0781C114.183 36.1562 113.77 36.1953 113.34 36.1953C111.165 36.1953 110.078 35.0495 110.078 32.7578V26.9375H108.604V25.9219L110.186 25.082L110.967 22.7969H112.383V25.1992H115.459V26.9375H112.383V32.7188C112.383 33.2721 112.52 33.6823 112.793 33.9492C113.073 34.2096 113.438 34.3398 113.887 34.3398ZM122.451 36.1953C120.771 36.1953 119.456 35.707 118.506 34.7305C117.562 33.7474 117.09 32.3965 117.09 30.6777C117.09 28.9134 117.529 27.5267 118.408 26.5176C119.287 25.5085 120.495 25.0039 122.031 25.0039C123.457 25.0039 124.583 25.4368 125.41 26.3027C126.237 27.1686 126.65 28.36 126.65 29.877V31.1172H119.453C119.486 32.1654 119.769 32.9727 120.303 33.5391C120.837 34.099 121.589 34.3789 122.559 34.3789C123.197 34.3789 123.789 34.3203 124.336 34.2031C124.889 34.0794 125.482 33.8776 126.113 33.5977V35.4629C125.553 35.7298 124.987 35.9186 124.414 36.0293C123.841 36.14 123.187 36.1953 122.451 36.1953ZM122.031 26.7422C121.302 26.7422 120.716 26.9733 120.273 27.4355C119.837 27.8978 119.577 28.5716 119.492 29.457H124.395C124.382 28.5651 124.167 27.8913 123.75 27.4355C123.333 26.9733 122.76 26.7422 122.031 26.7422ZM132.9 36.1953C131.553 36.1953 130.501 35.707 129.746 34.7305C128.991 33.7539 128.613 32.3835 128.613 30.6191C128.613 28.8483 128.994 27.4714 129.756 26.4883C130.524 25.4987 131.585 25.0039 132.939 25.0039C134.359 25.0039 135.439 25.528 136.182 26.5762H136.299C136.188 25.8014 136.133 25.1895 136.133 24.7402V20.8047H138.438V36H136.641L136.24 34.584H136.133C135.397 35.6582 134.32 36.1953 132.9 36.1953ZM133.516 34.3398C134.46 34.3398 135.146 34.0762 135.576 33.5488C136.006 33.015 136.227 32.1523 136.24 30.9609V30.6387C136.24 29.278 136.019 28.3112 135.576 27.7383C135.133 27.1654 134.44 26.8789 133.496 26.8789C132.689 26.8789 132.067 27.2077 131.631 27.8652C131.195 28.5163 130.977 29.4473 130.977 30.6582C130.977 31.8561 131.188 32.7708 131.611 33.4023C132.035 34.0273 132.669 34.3398 133.516 34.3398Z" fill="white"/>
</svg>
