<svg width="45" height="13" viewBox="0 0 45 13" fill="none" xmlns="http://www.w3.org/2000/svg">
<path d="M9.51562 12H7.64062V6.85156H2.375V12H0.507812V0.578125H2.375V5.25H7.64062V0.578125H9.51562V12ZM19.9922 7.66406C19.9922 9.07552 19.6302 10.1771 18.9062 10.9688C18.1823 11.7604 17.1745 12.1562 15.8828 12.1562C15.0755 12.1562 14.362 11.974 13.7422 11.6094C13.1224 11.2448 12.6458 10.7214 12.3125 10.0391C11.9792 9.35677 11.8125 8.5651 11.8125 7.66406C11.8125 6.26302 12.1719 5.16927 12.8906 4.38281C13.6094 3.59635 14.6224 3.20312 15.9297 3.20312C17.1797 3.20312 18.1693 3.60677 18.8984 4.41406C19.6276 5.21615 19.9922 6.29948 19.9922 7.66406ZM13.7031 7.66406C13.7031 9.65885 14.4401 10.6562 15.9141 10.6562C17.3724 10.6562 18.1016 9.65885 18.1016 7.66406C18.1016 5.6901 17.3672 4.70312 15.8984 4.70312C15.1276 4.70312 14.5677 4.95833 14.2188 5.46875C13.875 5.97917 13.7031 6.71094 13.7031 7.66406ZM29.3906 12H27.5469V6.67188C27.5469 6.01042 27.4219 5.51823 27.1719 5.19531C26.9219 4.86719 26.5312 4.70312 26 4.70312C25.2917 4.70312 24.7708 4.9349 24.4375 5.39844C24.1094 5.85677 23.9453 6.6224 23.9453 7.69531V12H22.1094V3.35938H23.5469L23.8047 4.49219H23.8984C24.138 4.08073 24.4844 3.76302 24.9375 3.53906C25.3958 3.3151 25.8984 3.20312 26.4453 3.20312C27.7734 3.20312 28.6536 3.65625 29.0859 4.5625H29.2109C29.4661 4.13542 29.8255 3.80208 30.2891 3.5625C30.7526 3.32292 31.2839 3.20312 31.8828 3.20312C32.9141 3.20312 33.6641 3.46354 34.1328 3.98438C34.6068 4.50521 34.8438 5.29948 34.8438 6.36719V12H33.0078V6.67188C33.0078 6.01042 32.8802 5.51823 32.625 5.19531C32.375 4.86719 31.9844 4.70312 31.4531 4.70312C30.7396 4.70312 30.2161 4.92708 29.8828 5.375C29.5547 5.81771 29.3906 6.5 29.3906 7.42188V12ZM41.1797 12.1562C39.8359 12.1562 38.7839 11.7656 38.0234 10.9844C37.2682 10.1979 36.8906 9.11719 36.8906 7.74219C36.8906 6.33073 37.2422 5.22135 37.9453 4.41406C38.6484 3.60677 39.6146 3.20312 40.8438 3.20312C41.9844 3.20312 42.8854 3.54948 43.5469 4.24219C44.2083 4.9349 44.5391 5.88802 44.5391 7.10156V8.09375H38.7812C38.8073 8.93229 39.0339 9.57812 39.4609 10.0312C39.888 10.4792 40.4896 10.7031 41.2656 10.7031C41.776 10.7031 42.25 10.6562 42.6875 10.5625C43.1302 10.4635 43.6042 10.3021 44.1094 10.0781V11.5703C43.6615 11.7839 43.2083 11.9349 42.75 12.0234C42.2917 12.112 41.7682 12.1562 41.1797 12.1562ZM40.8438 4.59375C40.2604 4.59375 39.7917 4.77865 39.4375 5.14844C39.0885 5.51823 38.8802 6.05729 38.8125 6.76562H42.7344C42.724 6.05208 42.5521 5.51302 42.2188 5.14844C41.8854 4.77865 41.4271 4.59375 40.8438 4.59375Z" fill="white"/>
</svg>
