<svg width="411" height="22" viewBox="0 0 411 22" fill="none" xmlns="http://www.w3.org/2000/svg">
<path d="M10.5156 17H8.64062V11.8516H3.375V17H1.50781V5.57812H3.375V10.25H8.64062V5.57812H10.5156V17ZM20.9922 12.6641C20.9922 14.0755 20.6302 15.1771 19.9062 15.9688C19.1823 16.7604 18.1745 17.1562 16.8828 17.1562C16.0755 17.1562 15.362 16.974 14.7422 16.6094C14.1224 16.2448 13.6458 15.7214 13.3125 15.0391C12.9792 14.3568 12.8125 13.5651 12.8125 12.6641C12.8125 11.263 13.1719 10.1693 13.8906 9.38281C14.6094 8.59635 15.6224 8.20312 16.9297 8.20312C18.1797 8.20312 19.1693 8.60677 19.8984 9.41406C20.6276 10.2161 20.9922 11.2995 20.9922 12.6641ZM14.7031 12.6641C14.7031 14.6589 15.4401 15.6562 16.9141 15.6562C18.3724 15.6562 19.1016 14.6589 19.1016 12.6641C19.1016 10.6901 18.3672 9.70312 16.8984 9.70312C16.1276 9.70312 15.5677 9.95833 15.2188 10.4688C14.875 10.9792 14.7031 11.7109 14.7031 12.6641ZM30.3906 17H28.5469V11.6719C28.5469 11.0104 28.4219 10.5182 28.1719 10.1953C27.9219 9.86719 27.5312 9.70312 27 9.70312C26.2917 9.70312 25.7708 9.9349 25.4375 10.3984C25.1094 10.8568 24.9453 11.6224 24.9453 12.6953V17H23.1094V8.35938H24.5469L24.8047 9.49219H24.8984C25.138 9.08073 25.4844 8.76302 25.9375 8.53906C26.3958 8.3151 26.8984 8.20312 27.4453 8.20312C28.7734 8.20312 29.6536 8.65625 30.0859 9.5625H30.2109C30.4661 9.13542 30.8255 8.80208 31.2891 8.5625C31.7526 8.32292 32.2839 8.20312 32.8828 8.20312C33.9141 8.20312 34.6641 8.46354 35.1328 8.98438C35.6068 9.50521 35.8438 10.2995 35.8438 11.3672V17H34.0078V11.6719C34.0078 11.0104 33.8802 10.5182 33.625 10.1953C33.375 9.86719 32.9844 9.70312 32.4531 9.70312C31.7396 9.70312 31.2161 9.92708 30.8828 10.375C30.5547 10.8177 30.3906 11.5 30.3906 12.4219V17ZM42.1797 17.1562C40.8359 17.1562 39.7839 16.7656 39.0234 15.9844C38.2682 15.1979 37.8906 14.1172 37.8906 12.7422C37.8906 11.3307 38.2422 10.2214 38.9453 9.41406C39.6484 8.60677 40.6146 8.20312 41.8438 8.20312C42.9844 8.20312 43.8854 8.54948 44.5469 9.24219C45.2083 9.9349 45.5391 10.888 45.5391 12.1016V13.0938H39.7812C39.8073 13.9323 40.0339 14.5781 40.4609 15.0312C40.888 15.4792 41.4896 15.7031 42.2656 15.7031C42.776 15.7031 43.25 15.6562 43.6875 15.5625C44.1302 15.4635 44.6042 15.3021 45.1094 15.0781V16.5703C44.6615 16.7839 44.2083 16.9349 43.75 17.0234C43.2917 17.112 42.7682 17.1562 42.1797 17.1562ZM41.8438 9.59375C41.2604 9.59375 40.7917 9.77865 40.4375 10.1484C40.0885 10.5182 39.8802 11.0573 39.8125 11.7656H43.7344C43.724 11.0521 43.5521 10.513 43.2188 10.1484C42.8854 9.77865 42.4271 9.59375 41.8438 9.59375Z" fill="white"/>
<path d="M95.5938 17L94.4531 13.8281H90.0859L88.9688 17H87L91.2734 5.53125H93.3047L97.5781 17H95.5938ZM93.9609 12.2188L92.8906 9.10938C92.8125 8.90104 92.7031 8.57292 92.5625 8.125C92.4271 7.67708 92.3333 7.34896 92.2812 7.14062C92.1406 7.78125 91.9349 8.48177 91.6641 9.24219L90.6328 12.2188H93.9609ZM103.305 8.20312C104.383 8.20312 105.221 8.59375 105.82 9.375C106.424 10.1562 106.727 11.2526 106.727 12.6641C106.727 14.0807 106.422 15.1849 105.812 15.9766C105.203 16.763 104.357 17.1562 103.273 17.1562C102.18 17.1562 101.331 16.763 100.727 15.9766H100.602L100.266 17H98.8906V4.84375H100.727V7.73438C100.727 7.94792 100.716 8.26562 100.695 8.6875C100.674 9.10938 100.659 9.3776 100.648 9.49219H100.727C101.31 8.63281 102.169 8.20312 103.305 8.20312ZM102.828 9.70312C102.089 9.70312 101.555 9.92188 101.227 10.3594C100.904 10.7917 100.737 11.5182 100.727 12.5391V12.6641C100.727 13.7161 100.893 14.4792 101.227 14.9531C101.56 15.4219 102.104 15.6562 102.859 15.6562C103.51 15.6562 104.003 15.3984 104.336 14.8828C104.674 14.3672 104.844 13.6224 104.844 12.6484C104.844 10.6849 104.172 9.70312 102.828 9.70312ZM116.523 12.6641C116.523 14.0755 116.161 15.1771 115.438 15.9688C114.714 16.7604 113.706 17.1562 112.414 17.1562C111.607 17.1562 110.893 16.974 110.273 16.6094C109.654 16.2448 109.177 15.7214 108.844 15.0391C108.51 14.3568 108.344 13.5651 108.344 12.6641C108.344 11.263 108.703 10.1693 109.422 9.38281C110.141 8.59635 111.154 8.20312 112.461 8.20312C113.711 8.20312 114.701 8.60677 115.43 9.41406C116.159 10.2161 116.523 11.2995 116.523 12.6641ZM110.234 12.6641C110.234 14.6589 110.971 15.6562 112.445 15.6562C113.904 15.6562 114.633 14.6589 114.633 12.6641C114.633 10.6901 113.898 9.70312 112.43 9.70312C111.659 9.70312 111.099 9.95833 110.75 10.4688C110.406 10.9792 110.234 11.7109 110.234 12.6641ZM124.734 17L124.477 15.8672H124.383C124.128 16.2682 123.763 16.5833 123.289 16.8125C122.82 17.0417 122.284 17.1562 121.68 17.1562C120.633 17.1562 119.852 16.8958 119.336 16.375C118.82 15.8542 118.562 15.0651 118.562 14.0078V8.35938H120.414V13.6875C120.414 14.349 120.549 14.8464 120.82 15.1797C121.091 15.5078 121.516 15.6719 122.094 15.6719C122.865 15.6719 123.43 15.4427 123.789 14.9844C124.154 14.5208 124.336 13.7474 124.336 12.6641V8.35938H126.18V17H124.734ZM132.016 15.6719C132.464 15.6719 132.911 15.6016 133.359 15.4609V16.8438C133.156 16.9323 132.893 17.0052 132.57 17.0625C132.253 17.125 131.922 17.1562 131.578 17.1562C129.839 17.1562 128.969 16.2396 128.969 14.4062V9.75H127.789V8.9375L129.055 8.26562L129.68 6.4375H130.812V8.35938H133.273V9.75H130.812V14.375C130.812 14.8177 130.922 15.1458 131.141 15.3594C131.365 15.5677 131.656 15.6719 132.016 15.6719Z" fill="white"/>
<path d="M182.094 13.8984C182.094 14.9141 181.727 15.7109 180.992 16.2891C180.258 16.8672 179.245 17.1562 177.953 17.1562C176.661 17.1562 175.604 16.9557 174.781 16.5547V14.7891C175.302 15.0339 175.854 15.2266 176.438 15.3672C177.026 15.5078 177.573 15.5781 178.078 15.5781C178.818 15.5781 179.362 15.4375 179.711 15.1562C180.065 14.875 180.242 14.4974 180.242 14.0234C180.242 13.5964 180.081 13.2344 179.758 12.9375C179.435 12.6406 178.768 12.2891 177.758 11.8828C176.716 11.4609 175.982 10.9792 175.555 10.4375C175.128 9.89583 174.914 9.24479 174.914 8.48438C174.914 7.53125 175.253 6.78125 175.93 6.23438C176.607 5.6875 177.516 5.41406 178.656 5.41406C179.75 5.41406 180.839 5.65365 181.922 6.13281L181.328 7.65625C180.312 7.22917 179.406 7.01562 178.609 7.01562C178.005 7.01562 177.547 7.14844 177.234 7.41406C176.922 7.67448 176.766 8.02083 176.766 8.45312C176.766 8.75 176.828 9.00521 176.953 9.21875C177.078 9.42708 177.284 9.625 177.57 9.8125C177.857 10 178.372 10.2474 179.117 10.5547C179.956 10.9036 180.57 11.2292 180.961 11.5312C181.352 11.8333 181.638 12.1745 181.82 12.5547C182.003 12.9349 182.094 13.3828 182.094 13.8984ZM187.883 17.1562C186.539 17.1562 185.487 16.7656 184.727 15.9844C183.971 15.1979 183.594 14.1172 183.594 12.7422C183.594 11.3307 183.945 10.2214 184.648 9.41406C185.352 8.60677 186.318 8.20312 187.547 8.20312C188.688 8.20312 189.589 8.54948 190.25 9.24219C190.911 9.9349 191.242 10.888 191.242 12.1016V13.0938H185.484C185.51 13.9323 185.737 14.5781 186.164 15.0312C186.591 15.4792 187.193 15.7031 187.969 15.7031C188.479 15.7031 188.953 15.6562 189.391 15.5625C189.833 15.4635 190.307 15.3021 190.812 15.0781V16.5703C190.365 16.7839 189.911 16.9349 189.453 17.0234C188.995 17.112 188.471 17.1562 187.883 17.1562ZM187.547 9.59375C186.964 9.59375 186.495 9.77865 186.141 10.1484C185.792 10.5182 185.583 11.0573 185.516 11.7656H189.438C189.427 11.0521 189.255 10.513 188.922 10.1484C188.589 9.77865 188.13 9.59375 187.547 9.59375ZM197.711 8.20312C198.081 8.20312 198.385 8.22917 198.625 8.28125L198.445 9.99219C198.185 9.92969 197.914 9.89844 197.633 9.89844C196.898 9.89844 196.302 10.138 195.844 10.6172C195.391 11.0964 195.164 11.7188 195.164 12.4844V17H193.328V8.35938H194.766L195.008 9.88281H195.102C195.388 9.36719 195.76 8.95833 196.219 8.65625C196.682 8.35417 197.18 8.20312 197.711 8.20312ZM202.203 17L198.922 8.35938H200.859L202.617 13.3828C202.919 14.2266 203.102 14.9089 203.164 15.4297H203.227C203.273 15.0547 203.456 14.3724 203.773 13.3828L205.531 8.35938H207.484L204.188 17H202.203ZM210.633 17H208.797V8.35938H210.633V17ZM208.688 6.07031C208.688 5.74219 208.776 5.48958 208.953 5.3125C209.135 5.13542 209.393 5.04688 209.727 5.04688C210.049 5.04688 210.299 5.13542 210.477 5.3125C210.659 5.48958 210.75 5.74219 210.75 6.07031C210.75 6.38281 210.659 6.63021 210.477 6.8125C210.299 6.98958 210.049 7.07812 209.727 7.07812C209.393 7.07812 209.135 6.98958 208.953 6.8125C208.776 6.63021 208.688 6.38281 208.688 6.07031ZM216.75 17.1562C215.443 17.1562 214.448 16.776 213.766 16.0156C213.089 15.25 212.75 14.1536 212.75 12.7266C212.75 11.2734 213.104 10.1562 213.812 9.375C214.526 8.59375 215.555 8.20312 216.898 8.20312C217.81 8.20312 218.63 8.3724 219.359 8.71094L218.805 10.1875C218.029 9.88542 217.388 9.73438 216.883 9.73438C215.388 9.73438 214.641 10.7266 214.641 12.7109C214.641 13.6797 214.826 14.4089 215.195 14.8984C215.57 15.3828 216.117 15.625 216.836 15.625C217.654 15.625 218.427 15.4219 219.156 15.0156V16.6172C218.828 16.8099 218.477 16.9479 218.102 17.0312C217.732 17.1146 217.281 17.1562 216.75 17.1562ZM224.961 17.1562C223.617 17.1562 222.565 16.7656 221.805 15.9844C221.049 15.1979 220.672 14.1172 220.672 12.7422C220.672 11.3307 221.023 10.2214 221.727 9.41406C222.43 8.60677 223.396 8.20312 224.625 8.20312C225.766 8.20312 226.667 8.54948 227.328 9.24219C227.99 9.9349 228.32 10.888 228.32 12.1016V13.0938H222.562C222.589 13.9323 222.815 14.5781 223.242 15.0312C223.669 15.4792 224.271 15.7031 225.047 15.7031C225.557 15.7031 226.031 15.6562 226.469 15.5625C226.911 15.4635 227.385 15.3021 227.891 15.0781V16.5703C227.443 16.7839 226.99 16.9349 226.531 17.0234C226.073 17.112 225.549 17.1562 224.961 17.1562ZM224.625 9.59375C224.042 9.59375 223.573 9.77865 223.219 10.1484C222.87 10.5182 222.661 11.0573 222.594 11.7656H226.516C226.505 11.0521 226.333 10.513 226 10.1484C225.667 9.77865 225.208 9.59375 224.625 9.59375ZM236.211 14.5391C236.211 15.3828 235.904 16.0312 235.289 16.4844C234.674 16.9323 233.794 17.1562 232.648 17.1562C231.497 17.1562 230.573 16.9818 229.875 16.6328V15.0469C230.891 15.5156 231.836 15.75 232.711 15.75C233.841 15.75 234.406 15.4089 234.406 14.7266C234.406 14.5078 234.344 14.3255 234.219 14.1797C234.094 14.0339 233.888 13.8828 233.602 13.7266C233.315 13.5703 232.917 13.3932 232.406 13.1953C231.411 12.8099 230.737 12.4245 230.383 12.0391C230.034 11.6536 229.859 11.1536 229.859 10.5391C229.859 9.79948 230.156 9.22656 230.75 8.82031C231.349 8.40885 232.161 8.20312 233.188 8.20312C234.203 8.20312 235.164 8.40885 236.07 8.82031L235.477 10.2031C234.544 9.81771 233.76 9.625 233.125 9.625C232.156 9.625 231.672 9.90104 231.672 10.4531C231.672 10.724 231.797 10.9531 232.047 11.1406C232.302 11.3281 232.854 11.5859 233.703 11.9141C234.417 12.1901 234.935 12.4427 235.258 12.6719C235.581 12.901 235.82 13.1667 235.977 13.4688C236.133 13.7656 236.211 14.1224 236.211 14.5391Z" fill="white"/>
<path d="M278.508 5.57812H281.898C283.471 5.57812 284.607 5.80729 285.305 6.26562C286.008 6.72396 286.359 7.44792 286.359 8.4375C286.359 9.10417 286.188 9.65885 285.844 10.1016C285.5 10.5443 285.005 10.8229 284.359 10.9375V11.0156C285.161 11.1667 285.75 11.4661 286.125 11.9141C286.505 12.3568 286.695 12.9583 286.695 13.7188C286.695 14.7448 286.336 15.5495 285.617 16.1328C284.904 16.7109 283.909 17 282.633 17H278.508V5.57812ZM280.375 10.2969H282.172C282.953 10.2969 283.523 10.1745 283.883 9.92969C284.242 9.67969 284.422 9.25781 284.422 8.66406C284.422 8.1276 284.227 7.73958 283.836 7.5C283.451 7.26042 282.836 7.14062 281.992 7.14062H280.375V10.2969ZM280.375 11.8125V15.4297H282.359C283.141 15.4297 283.729 15.2812 284.125 14.9844C284.526 14.6823 284.727 14.2083 284.727 13.5625C284.727 12.9688 284.523 12.5286 284.117 12.2422C283.711 11.9557 283.094 11.8125 282.266 11.8125H280.375ZM290.711 17H288.875V4.84375H290.711V17ZM301.008 12.6641C301.008 14.0755 300.646 15.1771 299.922 15.9688C299.198 16.7604 298.19 17.1562 296.898 17.1562C296.091 17.1562 295.378 16.974 294.758 16.6094C294.138 16.2448 293.661 15.7214 293.328 15.0391C292.995 14.3568 292.828 13.5651 292.828 12.6641C292.828 11.263 293.188 10.1693 293.906 9.38281C294.625 8.59635 295.638 8.20312 296.945 8.20312C298.195 8.20312 299.185 8.60677 299.914 9.41406C300.643 10.2161 301.008 11.2995 301.008 12.6641ZM294.719 12.6641C294.719 14.6589 295.456 15.6562 296.93 15.6562C298.388 15.6562 299.117 14.6589 299.117 12.6641C299.117 10.6901 298.383 9.70312 296.914 9.70312C296.143 9.70312 295.583 9.95833 295.234 10.4688C294.891 10.9792 294.719 11.7109 294.719 12.6641ZM310.422 8.35938V9.36719L308.945 9.64062C309.081 9.82292 309.193 10.0469 309.281 10.3125C309.37 10.5781 309.414 10.8594 309.414 11.1562C309.414 12.0469 309.107 12.7474 308.492 13.2578C307.878 13.7682 307.031 14.0234 305.953 14.0234C305.677 14.0234 305.427 14.0026 305.203 13.9609C304.807 14.2057 304.609 14.4922 304.609 14.8203C304.609 15.0182 304.701 15.1667 304.883 15.2656C305.07 15.3646 305.411 15.4141 305.906 15.4141H307.414C308.367 15.4141 309.091 15.6172 309.586 16.0234C310.081 16.4297 310.328 17.0156 310.328 17.7812C310.328 18.7604 309.924 19.5156 309.117 20.0469C308.31 20.5781 307.143 20.8438 305.617 20.8438C304.44 20.8438 303.542 20.6354 302.922 20.2188C302.302 19.8021 301.992 19.2083 301.992 18.4375C301.992 17.9062 302.159 17.4583 302.492 17.0938C302.831 16.7344 303.302 16.4844 303.906 16.3438C303.661 16.2396 303.458 16.0729 303.297 15.8438C303.141 15.6094 303.062 15.3646 303.062 15.1094C303.062 14.7865 303.154 14.513 303.336 14.2891C303.518 14.0651 303.789 13.8438 304.148 13.625C303.701 13.4323 303.336 13.1198 303.055 12.6875C302.779 12.25 302.641 11.7396 302.641 11.1562C302.641 10.2188 302.935 9.49219 303.523 8.97656C304.117 8.46094 304.961 8.20312 306.055 8.20312C306.299 8.20312 306.555 8.22135 306.82 8.25781C307.091 8.28906 307.294 8.32292 307.43 8.35938H310.422ZM303.633 18.3438C303.633 18.7396 303.81 19.0443 304.164 19.2578C304.523 19.4714 305.026 19.5781 305.672 19.5781C306.672 19.5781 307.417 19.4349 307.906 19.1484C308.396 18.862 308.641 18.4818 308.641 18.0078C308.641 17.6328 308.505 17.3646 308.234 17.2031C307.969 17.0469 307.471 16.9688 306.742 16.9688H305.352C304.826 16.9688 304.406 17.0911 304.094 17.3359C303.786 17.5859 303.633 17.9219 303.633 18.3438ZM304.422 11.1562C304.422 11.6979 304.56 12.1146 304.836 12.4062C305.117 12.6979 305.518 12.8438 306.039 12.8438C307.102 12.8438 307.633 12.276 307.633 11.1406C307.633 10.5781 307.5 10.1458 307.234 9.84375C306.974 9.53646 306.576 9.38281 306.039 9.38281C305.508 9.38281 305.104 9.53385 304.828 9.83594C304.557 10.138 304.422 10.5781 304.422 11.1562Z" fill="white"/>
<path d="M357.367 7.01562C356.294 7.01562 355.451 7.39583 354.836 8.15625C354.221 8.91667 353.914 9.96615 353.914 11.3047C353.914 12.7057 354.208 13.7656 354.797 14.4844C355.391 15.2031 356.247 15.5625 357.367 15.5625C357.852 15.5625 358.32 15.5156 358.773 15.4219C359.227 15.3229 359.698 15.1979 360.188 15.0469V16.6484C359.292 16.987 358.276 17.1562 357.141 17.1562C355.469 17.1562 354.185 16.651 353.289 15.6406C352.393 14.625 351.945 13.1745 351.945 11.2891C351.945 10.1016 352.161 9.0625 352.594 8.17188C353.031 7.28125 353.661 6.59896 354.484 6.125C355.307 5.65104 356.273 5.41406 357.383 5.41406C358.549 5.41406 359.628 5.65885 360.617 6.14844L359.945 7.70312C359.56 7.52083 359.151 7.36198 358.719 7.22656C358.292 7.08594 357.841 7.01562 357.367 7.01562ZM370.117 12.6641C370.117 14.0755 369.755 15.1771 369.031 15.9688C368.307 16.7604 367.299 17.1562 366.008 17.1562C365.201 17.1562 364.487 16.974 363.867 16.6094C363.247 16.2448 362.771 15.7214 362.438 15.0391C362.104 14.3568 361.938 13.5651 361.938 12.6641C361.938 11.263 362.297 10.1693 363.016 9.38281C363.734 8.59635 364.747 8.20312 366.055 8.20312C367.305 8.20312 368.294 8.60677 369.023 9.41406C369.753 10.2161 370.117 11.2995 370.117 12.6641ZM363.828 12.6641C363.828 14.6589 364.565 15.6562 366.039 15.6562C367.497 15.6562 368.227 14.6589 368.227 12.6641C368.227 10.6901 367.492 9.70312 366.023 9.70312C365.253 9.70312 364.693 9.95833 364.344 10.4688C364 10.9792 363.828 11.7109 363.828 12.6641ZM379.836 17H377.992V11.6875C377.992 11.0208 377.857 10.5234 377.586 10.1953C377.32 9.86719 376.896 9.70312 376.312 9.70312C375.536 9.70312 374.969 9.93229 374.609 10.3906C374.25 10.849 374.07 11.6172 374.07 12.6953V17H372.234V8.35938H373.672L373.93 9.49219H374.023C374.284 9.08073 374.654 8.76302 375.133 8.53906C375.612 8.3151 376.143 8.20312 376.727 8.20312C378.799 8.20312 379.836 9.25781 379.836 11.3672V17ZM385.609 15.6719C386.057 15.6719 386.505 15.6016 386.953 15.4609V16.8438C386.75 16.9323 386.487 17.0052 386.164 17.0625C385.846 17.125 385.516 17.1562 385.172 17.1562C383.432 17.1562 382.562 16.2396 382.562 14.4062V9.75H381.383V8.9375L382.648 8.26562L383.273 6.4375H384.406V8.35938H386.867V9.75H384.406V14.375C384.406 14.8177 384.516 15.1458 384.734 15.3594C384.958 15.5677 385.25 15.6719 385.609 15.6719ZM394.094 17L393.727 15.7969H393.664C393.247 16.3229 392.828 16.6823 392.406 16.875C391.984 17.0625 391.443 17.1562 390.781 17.1562C389.932 17.1562 389.268 16.9271 388.789 16.4688C388.315 16.0104 388.078 15.362 388.078 14.5234C388.078 13.6328 388.409 12.9609 389.07 12.5078C389.732 12.0547 390.74 11.8073 392.094 11.7656L393.586 11.7188V11.2578C393.586 10.7057 393.456 10.2943 393.195 10.0234C392.94 9.7474 392.542 9.60938 392 9.60938C391.557 9.60938 391.133 9.67448 390.727 9.80469C390.32 9.9349 389.93 10.0885 389.555 10.2656L388.961 8.95312C389.43 8.70833 389.943 8.52344 390.5 8.39844C391.057 8.26823 391.583 8.20312 392.078 8.20312C393.177 8.20312 394.005 8.44271 394.562 8.92188C395.125 9.40104 395.406 10.1536 395.406 11.1797V17H394.094ZM391.359 15.75C392.026 15.75 392.56 15.5651 392.961 15.1953C393.367 14.8203 393.57 14.2969 393.57 13.625V12.875L392.461 12.9219C391.596 12.9531 390.966 13.099 390.57 13.3594C390.18 13.6146 389.984 14.0078 389.984 14.5391C389.984 14.9245 390.099 15.224 390.328 15.4375C390.557 15.6458 390.901 15.75 391.359 15.75ZM401.453 17.1562C400.146 17.1562 399.151 16.776 398.469 16.0156C397.792 15.25 397.453 14.1536 397.453 12.7266C397.453 11.2734 397.807 10.1562 398.516 9.375C399.229 8.59375 400.258 8.20312 401.602 8.20312C402.513 8.20312 403.333 8.3724 404.062 8.71094L403.508 10.1875C402.732 9.88542 402.091 9.73438 401.586 9.73438C400.091 9.73438 399.344 10.7266 399.344 12.7109C399.344 13.6797 399.529 14.4089 399.898 14.8984C400.273 15.3828 400.82 15.625 401.539 15.625C402.357 15.625 403.13 15.4219 403.859 15.0156V16.6172C403.531 16.8099 403.18 16.9479 402.805 17.0312C402.435 17.1146 401.984 17.1562 401.453 17.1562ZM409.109 15.6719C409.557 15.6719 410.005 15.6016 410.453 15.4609V16.8438C410.25 16.9323 409.987 17.0052 409.664 17.0625C409.346 17.125 409.016 17.1562 408.672 17.1562C406.932 17.1562 406.062 16.2396 406.062 14.4062V9.75H404.883V8.9375L406.148 8.26562L406.773 6.4375H407.906V8.35938H410.367V9.75H407.906V14.375C407.906 14.8177 408.016 15.1458 408.234 15.3594C408.458 15.5677 408.75 15.6719 409.109 15.6719Z" fill="white"/>
</svg>
