<svg width="63" height="13" viewBox="0 0 63 13" fill="none" xmlns="http://www.w3.org/2000/svg">
<path d="M8.09375 8.89844C8.09375 9.91406 7.72656 10.7109 6.99219 11.2891C6.25781 11.8672 5.24479 12.1562 3.95312 12.1562C2.66146 12.1562 1.60417 11.9557 0.78125 11.5547V9.78906C1.30208 10.0339 1.85417 10.2266 2.4375 10.3672C3.02604 10.5078 3.57292 10.5781 4.07812 10.5781C4.81771 10.5781 5.36198 10.4375 5.71094 10.1562C6.0651 9.875 6.24219 9.4974 6.24219 9.02344C6.24219 8.59635 6.08073 8.23438 5.75781 7.9375C5.4349 7.64062 4.76823 7.28906 3.75781 6.88281C2.71615 6.46094 1.98177 5.97917 1.55469 5.4375C1.1276 4.89583 0.914062 4.24479 0.914062 3.48438C0.914062 2.53125 1.2526 1.78125 1.92969 1.23438C2.60677 0.6875 3.51562 0.414062 4.65625 0.414062C5.75 0.414062 6.83854 0.653646 7.92188 1.13281L7.32812 2.65625C6.3125 2.22917 5.40625 2.01562 4.60938 2.01562C4.00521 2.01562 3.54688 2.14844 3.23438 2.41406C2.92188 2.67448 2.76562 3.02083 2.76562 3.45312C2.76562 3.75 2.82812 4.00521 2.95312 4.21875C3.07812 4.42708 3.28385 4.625 3.57031 4.8125C3.85677 5 4.3724 5.2474 5.11719 5.55469C5.95573 5.90365 6.57031 6.22917 6.96094 6.53125C7.35156 6.83333 7.63802 7.17448 7.82031 7.55469C8.0026 7.9349 8.09375 8.38281 8.09375 8.89844ZM13.8828 12.1562C12.5391 12.1562 11.487 11.7656 10.7266 10.9844C9.97135 10.1979 9.59375 9.11719 9.59375 7.74219C9.59375 6.33073 9.94531 5.22135 10.6484 4.41406C11.3516 3.60677 12.3177 3.20312 13.5469 3.20312C14.6875 3.20312 15.5885 3.54948 16.25 4.24219C16.9115 4.9349 17.2422 5.88802 17.2422 7.10156V8.09375H11.4844C11.5104 8.93229 11.737 9.57812 12.1641 10.0312C12.5911 10.4792 13.1927 10.7031 13.9688 10.7031C14.4792 10.7031 14.9531 10.6562 15.3906 10.5625C15.8333 10.4635 16.3073 10.3021 16.8125 10.0781V11.5703C16.3646 11.7839 15.9115 11.9349 15.4531 12.0234C14.9948 12.112 14.4714 12.1562 13.8828 12.1562ZM13.5469 4.59375C12.9635 4.59375 12.4948 4.77865 12.1406 5.14844C11.7917 5.51823 11.5833 6.05729 11.5156 6.76562H15.4375C15.4271 6.05208 15.2552 5.51302 14.9219 5.14844C14.5885 4.77865 14.1302 4.59375 13.5469 4.59375ZM23.7109 3.20312C24.0807 3.20312 24.3854 3.22917 24.625 3.28125L24.4453 4.99219C24.1849 4.92969 23.9141 4.89844 23.6328 4.89844C22.8984 4.89844 22.3021 5.13802 21.8438 5.61719C21.3906 6.09635 21.1641 6.71875 21.1641 7.48438V12H19.3281V3.35938H20.7656L21.0078 4.88281H21.1016C21.388 4.36719 21.7604 3.95833 22.2188 3.65625C22.6823 3.35417 23.1797 3.20312 23.7109 3.20312ZM28.2031 12L24.9219 3.35938H26.8594L28.6172 8.38281C28.9193 9.22656 29.1016 9.90885 29.1641 10.4297H29.2266C29.2734 10.0547 29.4557 9.3724 29.7734 8.38281L31.5312 3.35938H33.4844L30.1875 12H28.2031ZM36.6328 12H34.7969V3.35938H36.6328V12ZM34.6875 1.07031C34.6875 0.742188 34.776 0.489583 34.9531 0.3125C35.1354 0.135417 35.3932 0.046875 35.7266 0.046875C36.0495 0.046875 36.2995 0.135417 36.4766 0.3125C36.6589 0.489583 36.75 0.742188 36.75 1.07031C36.75 1.38281 36.6589 1.63021 36.4766 1.8125C36.2995 1.98958 36.0495 2.07812 35.7266 2.07812C35.3932 2.07812 35.1354 1.98958 34.9531 1.8125C34.776 1.63021 34.6875 1.38281 34.6875 1.07031ZM42.75 12.1562C41.4427 12.1562 40.4479 11.776 39.7656 11.0156C39.0885 10.25 38.75 9.15365 38.75 7.72656C38.75 6.27344 39.1042 5.15625 39.8125 4.375C40.526 3.59375 41.5547 3.20312 42.8984 3.20312C43.8099 3.20312 44.6302 3.3724 45.3594 3.71094L44.8047 5.1875C44.0286 4.88542 43.388 4.73438 42.8828 4.73438C41.388 4.73438 40.6406 5.72656 40.6406 7.71094C40.6406 8.67969 40.8255 9.40885 41.1953 9.89844C41.5703 10.3828 42.1172 10.625 42.8359 10.625C43.6536 10.625 44.4271 10.4219 45.1562 10.0156V11.6172C44.8281 11.8099 44.4766 11.9479 44.1016 12.0312C43.7318 12.1146 43.2812 12.1562 42.75 12.1562ZM50.9609 12.1562C49.6172 12.1562 48.5651 11.7656 47.8047 10.9844C47.0495 10.1979 46.6719 9.11719 46.6719 7.74219C46.6719 6.33073 47.0234 5.22135 47.7266 4.41406C48.4297 3.60677 49.3958 3.20312 50.625 3.20312C51.7656 3.20312 52.6667 3.54948 53.3281 4.24219C53.9896 4.9349 54.3203 5.88802 54.3203 7.10156V8.09375H48.5625C48.5885 8.93229 48.8151 9.57812 49.2422 10.0312C49.6693 10.4792 50.2708 10.7031 51.0469 10.7031C51.5573 10.7031 52.0312 10.6562 52.4688 10.5625C52.9115 10.4635 53.3854 10.3021 53.8906 10.0781V11.5703C53.4427 11.7839 52.9896 11.9349 52.5312 12.0234C52.0729 12.112 51.5495 12.1562 50.9609 12.1562ZM50.625 4.59375C50.0417 4.59375 49.5729 4.77865 49.2188 5.14844C48.8698 5.51823 48.6615 6.05729 48.5938 6.76562H52.5156C52.5052 6.05208 52.3333 5.51302 52 5.14844C51.6667 4.77865 51.2083 4.59375 50.625 4.59375ZM62.2109 9.53906C62.2109 10.3828 61.9036 11.0312 61.2891 11.4844C60.6745 11.9323 59.7943 12.1562 58.6484 12.1562C57.4974 12.1562 56.5729 11.9818 55.875 11.6328V10.0469C56.8906 10.5156 57.8359 10.75 58.7109 10.75C59.8411 10.75 60.4062 10.4089 60.4062 9.72656C60.4062 9.50781 60.3438 9.32552 60.2188 9.17969C60.0938 9.03385 59.888 8.88281 59.6016 8.72656C59.3151 8.57031 58.9167 8.39323 58.4062 8.19531C57.4115 7.8099 56.737 7.42448 56.3828 7.03906C56.0339 6.65365 55.8594 6.15365 55.8594 5.53906C55.8594 4.79948 56.1562 4.22656 56.75 3.82031C57.349 3.40885 58.1615 3.20312 59.1875 3.20312C60.2031 3.20312 61.1641 3.40885 62.0703 3.82031L61.4766 5.20312C60.5443 4.81771 59.7604 4.625 59.125 4.625C58.1562 4.625 57.6719 4.90104 57.6719 5.45312C57.6719 5.72396 57.7969 5.95312 58.0469 6.14062C58.3021 6.32812 58.8542 6.58594 59.7031 6.91406C60.4167 7.1901 60.9349 7.44271 61.2578 7.67188C61.5807 7.90104 61.8203 8.16667 61.9766 8.46875C62.1328 8.76562 62.2109 9.1224 62.2109 9.53906Z" fill="white"/>
</svg>
