<svg width="112" height="52" viewBox="0 0 112 52" fill="none" xmlns="http://www.w3.org/2000/svg">
<rect width="112" height="52" rx="5" fill="#3A68B8"/>
<path d="M38.0938 28.8984C38.0938 29.9141 37.7266 30.7109 36.9922 31.2891C36.2578 31.8672 35.2448 32.1562 33.9531 32.1562C32.6615 32.1562 31.6042 31.9557 30.7812 31.5547V29.7891C31.3021 30.0339 31.8542 30.2266 32.4375 30.3672C33.026 30.5078 33.5729 30.5781 34.0781 30.5781C34.8177 30.5781 35.362 30.4375 35.7109 30.1562C36.0651 29.875 36.2422 29.4974 36.2422 29.0234C36.2422 28.5964 36.0807 28.2344 35.7578 27.9375C35.4349 27.6406 34.7682 27.2891 33.7578 26.8828C32.7161 26.4609 31.9818 25.9792 31.5547 25.4375C31.1276 24.8958 30.9141 24.2448 30.9141 23.4844C30.9141 22.5312 31.2526 21.7812 31.9297 21.2344C32.6068 20.6875 33.5156 20.4141 34.6562 20.4141C35.75 20.4141 36.8385 20.6536 37.9219 21.1328L37.3281 22.6562C36.3125 22.2292 35.4062 22.0156 34.6094 22.0156C34.0052 22.0156 33.5469 22.1484 33.2344 22.4141C32.9219 22.6745 32.7656 23.0208 32.7656 23.4531C32.7656 23.75 32.8281 24.0052 32.9531 24.2188C33.0781 24.4271 33.2839 24.625 33.5703 24.8125C33.8568 25 34.3724 25.2474 35.1172 25.5547C35.9557 25.9036 36.5703 26.2292 36.9609 26.5312C37.3516 26.8333 37.638 27.1745 37.8203 27.5547C38.0026 27.9349 38.0938 28.3828 38.0938 28.8984ZM41.9453 32H40.1094V23.3594H41.9453V32ZM40 21.0703C40 20.7422 40.0885 20.4896 40.2656 20.3125C40.4479 20.1354 40.7057 20.0469 41.0391 20.0469C41.362 20.0469 41.612 20.1354 41.7891 20.3125C41.9714 20.4896 42.0625 20.7422 42.0625 21.0703C42.0625 21.3828 41.9714 21.6302 41.7891 21.8125C41.612 21.9896 41.362 22.0781 41.0391 22.0781C40.7057 22.0781 40.4479 21.9896 40.2656 21.8125C40.0885 21.6302 40 21.3828 40 21.0703ZM51.875 23.3594V24.3672L50.3984 24.6406C50.5339 24.8229 50.6458 25.0469 50.7344 25.3125C50.8229 25.5781 50.8672 25.8594 50.8672 26.1562C50.8672 27.0469 50.5599 27.7474 49.9453 28.2578C49.3307 28.7682 48.4844 29.0234 47.4062 29.0234C47.1302 29.0234 46.8802 29.0026 46.6562 28.9609C46.2604 29.2057 46.0625 29.4922 46.0625 29.8203C46.0625 30.0182 46.1536 30.1667 46.3359 30.2656C46.5234 30.3646 46.8646 30.4141 47.3594 30.4141H48.8672C49.8203 30.4141 50.5443 30.6172 51.0391 31.0234C51.5339 31.4297 51.7812 32.0156 51.7812 32.7812C51.7812 33.7604 51.3776 34.5156 50.5703 35.0469C49.763 35.5781 48.5964 35.8438 47.0703 35.8438C45.8932 35.8438 44.9948 35.6354 44.375 35.2188C43.7552 34.8021 43.4453 34.2083 43.4453 33.4375C43.4453 32.9062 43.612 32.4583 43.9453 32.0938C44.2839 31.7344 44.7552 31.4844 45.3594 31.3438C45.1146 31.2396 44.9115 31.0729 44.75 30.8438C44.5938 30.6094 44.5156 30.3646 44.5156 30.1094C44.5156 29.7865 44.6068 29.513 44.7891 29.2891C44.9714 29.0651 45.2422 28.8438 45.6016 28.625C45.1536 28.4323 44.7891 28.1198 44.5078 27.6875C44.2318 27.25 44.0938 26.7396 44.0938 26.1562C44.0938 25.2188 44.388 24.4922 44.9766 23.9766C45.5703 23.4609 46.4141 23.2031 47.5078 23.2031C47.7526 23.2031 48.0078 23.2214 48.2734 23.2578C48.5443 23.2891 48.7474 23.3229 48.8828 23.3594H51.875ZM45.0859 33.3438C45.0859 33.7396 45.263 34.0443 45.6172 34.2578C45.9766 34.4714 46.4792 34.5781 47.125 34.5781C48.125 34.5781 48.8698 34.4349 49.3594 34.1484C49.849 33.862 50.0938 33.4818 50.0938 33.0078C50.0938 32.6328 49.9583 32.3646 49.6875 32.2031C49.4219 32.0469 48.9245 31.9688 48.1953 31.9688H46.8047C46.2786 31.9688 45.8594 32.0911 45.5469 32.3359C45.2396 32.5859 45.0859 32.9219 45.0859 33.3438ZM45.875 26.1562C45.875 26.6979 46.013 27.1146 46.2891 27.4062C46.5703 27.6979 46.9714 27.8438 47.4922 27.8438C48.5547 27.8438 49.0859 27.276 49.0859 26.1406C49.0859 25.5781 48.9531 25.1458 48.6875 24.8438C48.4271 24.5365 48.0286 24.3828 47.4922 24.3828C46.9609 24.3828 46.5573 24.5339 46.2812 24.8359C46.0104 25.138 45.875 25.5781 45.875 26.1562ZM61.0859 32H59.2422V26.6875C59.2422 26.0208 59.1068 25.5234 58.8359 25.1953C58.5703 24.8672 58.1458 24.7031 57.5625 24.7031C56.7865 24.7031 56.2188 24.9323 55.8594 25.3906C55.5 25.849 55.3203 26.6172 55.3203 27.6953V32H53.4844V23.3594H54.9219L55.1797 24.4922H55.2734C55.5339 24.0807 55.9036 23.763 56.3828 23.5391C56.862 23.3151 57.3932 23.2031 57.9766 23.2031C60.0495 23.2031 61.0859 24.2578 61.0859 26.3672V32ZM67.9922 32V20.5781H69.8594V32H67.9922ZM80.2891 32H78.4453V26.6875C78.4453 26.0208 78.3099 25.5234 78.0391 25.1953C77.7734 24.8672 77.349 24.7031 76.7656 24.7031C75.9896 24.7031 75.4219 24.9323 75.0625 25.3906C74.7031 25.849 74.5234 26.6172 74.5234 27.6953V32H72.6875V23.3594H74.125L74.3828 24.4922H74.4766C74.737 24.0807 75.1068 23.763 75.5859 23.5391C76.0651 23.3151 76.5964 23.2031 77.1797 23.2031C79.2526 23.2031 80.2891 24.2578 80.2891 26.3672V32Z" fill="white"/>
</svg>
